<?xml version="1.0" encoding="utf-8"?>
<!-- Generator: Adobe Illustrator 17.0.0, SVG Export Plug-In . SVG Version: 6.00 Build 0)  -->
<!DOCTYPE svg PUBLIC "-//W3C//DTD SVG 1.1//EN" "http://www.w3.org/Graphics/SVG/1.1/DTD/svg11.dtd">
<svg version="1.1" id="图层_1" xmlns="http://www.w3.org/2000/svg" xmlns:xlink="http://www.w3.org/1999/xlink" x="0px" y="0px"
	 width="190px" height="30px" viewBox="0 0 190 30" enable-background="new 0 0 190 30" xml:space="preserve">
<g>
	<g>
		<g>
			<path fill="#F08300" d="M23.465,16.178H8.589c-0.639,0-1.219,0.257-1.639,0.672s-0.681,0.987-0.681,1.617
				c0,0.63,0.261,1.203,0.681,1.618c0.42,0.415,1,0.672,1.639,0.672h14.875h0.145V20.9v5.48h4.643V11.412v-0.063v-0.008l0,0
				c-0.002-2.127-0.882-4.057-2.3-5.455s-3.375-2.264-5.53-2.264h-3.866v0.001h-0.145c-4.34,0-8.274,1.38-11.1,3.843
				c-2.684,2.34-4.37,5.659-4.458,9.705l-0.003,0.14h0v0.047v0.12v0.001c0,0.001,0,0.001,0,0.001v0.001v0.001v0.001v0.001v0.001
				c0,0.001,0,0.001,0,0.001v0.001c0,0,0,0,0,0.001v0.001v0.001v0.001c0,0.001,0,0.001,0,0.001l0,0v0.009v8.878h4.64v-8.735v-0.142
				v-0.001v-0.142h0.001c0.037-2.797,1.171-5.012,2.997-6.564C10.482,9.101,13.3,8.2,16.412,8.2l4.011,0.004h0.001
				c0.871,0.007,1.67,0.363,2.249,0.933c0.576,0.567,0.936,1.346,0.936,2.203v4.694v0.143h-0.144 M0.85,17.492L0.85,17.492
				L0.85,17.492 M0.85,17.489L0.85,17.489L0.85,17.489c0,0.002,0,0.002,0,0.002C0.85,17.49,0.85,17.49,0.85,17.489L0.85,17.489
				L0.85,17.489 M0.85,17.48C0.85,17.481,0.85,17.481,0.85,17.48v0.002v0.001v0.001v0.001v0.001c0,0.001,0,0.001,0,0.001v0.001
				c0,0,0,0,0,0.001v0.001v-0.001c0-0.001,0-0.001,0-0.001v-0.001c0,0,0,0,0-0.001v-0.001v-0.001v-0.001v-0.001V17.48
				C0.85,17.481,0.85,17.481,0.85,17.48L0.85,17.48L0.85,17.48 M0.85,17.48C0.85,17.481,0.85,17.481,0.85,17.48v0.002v0.001v0.001
				v0.001v0.001c0,0.001,0,0.001,0,0.001v0.001c0,0,0,0,0,0.001v0.001v0.001v0.001c0,0.001,0,0.001,0,0.001l0,0l0,0
				c0-0.001,0-0.001,0-0.001V17.49v-0.001v-0.001c0-0.001,0-0.001,0-0.001v-0.001c0,0,0,0,0-0.001v-0.001v-0.001v-0.001v-0.001
				V17.48C0.85,17.481,0.85,17.481,0.85,17.48L0.85,17.48L0.85,17.48"/>
			<path fill="#F08300" d="M117.563,21.797H95.937l-1.998-0.003v1.599v0.581c0,0.626,0.261,1.263,0.731,1.725
				c0.416,0.409,1.002,0.68,1.719,0.68h21.227c0.59,0,1.195-0.276,1.647-0.711c0.427-0.411,0.713-0.961,0.713-1.55v-0.322
				c0-0.583-0.285-0.892-0.729-1.31C118.803,22.067,118.2,21.797,117.563,21.797L117.563,21.797z"/>
			<path fill="#F08300" d="M150.267,11.099l-0.066-2.069l-0.898-1.868l-1.409-1.352l-1.405-1.347l-1.913-0.834l-2.104-0.008h-0.097
				h-11.598h-0.145l-2.107,0.004l-1.916,0.832L125.2,5.806l-1.411,1.352l-0.9,1.87l-0.067,2.072l-0.004,0.139l0,0v0.11v7.24v0.063
				v0.009l0,0l0.002,2.115l0.871,1.921l1.405,1.396l1.406,1.397l1.942,0.872l2.141,0.016l0.144,0.001l0,0h11.579l0,0l0.145-0.001
				l2.153-0.003l1.954-0.867l1.416-1.397l1.416-1.398l0.879-1.929l0.002-2.124v-0.143h0.001v-7.169v-0.11h-0.001L150.267,11.099
				 M142.443,8.204l0.869,0.007l0.788,0.355l0.571,0.568l0.57,0.568l0.354,0.781v0.859v7.32v0.859l-0.354,0.78l-0.57,0.568
				l-0.539,0.537l-0.734,0.346l-0.812,0.042v0.005h-0.145h-11.795h-0.145v-0.005c-0.812-0.042-1.546-0.388-2.085-0.925l-0.539-0.536
				l-0.345-0.726l-0.037-0.803h-0.003V18.66l0,0v-0.143V11.34v-0.859l0.354-0.781l0.57-0.568l0.571-0.568l0.788-0.355l0.869-0.007
				h0.001h11.795h0.003"/>
			<polygon fill="#F08300" points="182.16,3.622 177.516,3.622 177.516,19.871 177.515,19.886 177.457,20.422 177.256,20.858 
				176.937,21.181 176.612,21.509 176.17,21.717 175.632,21.794 175.611,21.796 175.022,21.796 174.582,21.66 174.245,21.426 
				173.911,21.194 173.683,20.868 173.513,20.486 167.004,8.138 166.999,8.127 166.408,6.721 165.535,5.56 164.384,4.771 
				163.313,4.036 161.997,3.621 160.439,3.626 158.802,3.626 157.196,4.3 155.984,5.458 154.84,6.552 154.048,8.078 153.911,9.873 
				153.911,10.393 153.911,26.379 158.554,26.379 158.554,10.311 158.553,9.693 158.78,9.193 159.122,8.834 159.515,8.421 
				160.058,8.197 160.575,8.197 161.091,8.197 161.516,8.353 161.844,8.587 162.239,8.867 162.495,9.262 162.607,9.633 
				169.081,21.897 169.086,21.909 169.63,23.217 170.488,24.411 171.711,25.234 172.763,25.943 174.089,26.378 175.724,26.378 
				177.375,26.378 178.96,25.618 180.144,24.487 181.365,23.32 182.16,21.759 182.16,20.235 			"/>
			<path fill="#F08300" d="M51.457,16.175L51.457,16.175H39.625c-0.639,0-1.22,0.257-1.641,0.672
				c-0.421,0.415-0.681,0.988-0.681,1.619c0,0.631,0.261,1.204,0.681,1.619c0.421,0.415,1.001,0.673,1.641,0.673h11.832h0.001
				c2.152-0.001,4.105-0.864,5.523-2.258c1.418-1.394,2.3-3.32,2.308-5.442v-0.082v-1.491v-0.143
				c-0.002-2.122-0.879-4.049-2.292-5.447c-1.413-1.397-3.364-2.267-5.514-2.274h-0.116H36.67h-2.481
				c-0.313,0-0.599,0.06-0.854,0.166c-0.279,0.115-0.523,0.283-0.726,0.485c-0.229,0.227-0.408,0.494-0.531,0.771
				c-0.127,0.286-0.193,0.583-0.193,0.861v20.474h4.64V8.72V8.348V8.205h0.145h14.786h0.001c0.87,0.006,1.659,0.361,2.23,0.93
				c0.571,0.568,0.924,1.348,0.924,2.207h-0.103v0.001h0.103v1.696v0.143h-0.003c-0.037,0.802-0.382,1.528-0.921,2.064
				C53.116,15.813,52.327,16.168,51.457,16.175L51.457,16.175L51.457,16.175z"/>
			<path fill="#F08300" d="M93.95,10.832L93.95,10.832c0-3.738,3.344-7.21,7.444-7.21h16.186c0.588,0,1.146,0.251,1.566,0.62
				c0.443,0.388,0.727,0.899,0.727,1.379v0.531c0,0.504-0.288,1.014-0.709,1.405c-0.43,0.4-0.991,0.667-1.515,0.667l-16.456-0.018
				c-1.278,0.09-2.301,1.297-2.387,2.466c0-0.002,0,0.981,0,2.069v0.342h0.376h18.367c0.584,0,1.131,0.254,1.549,0.61
				c0.474,0.402,0.775,1.078,0.775,1.5v0.408c0,0.5-0.273,1.03-0.695,1.431c-0.397,0.378-0.92,0.634-1.461,0.634H95.939H93.95
				v-1.815V15.83v-0.775V10.832L93.95,10.832z"/>
			<path fill="#F08300" d="M82.501,16.175L82.501,16.175H70.668c-0.639,0-1.22,0.257-1.641,0.672s-0.682,0.988-0.682,1.619
				c0,0.631,0.261,1.204,0.682,1.619c0.421,0.415,1.001,0.673,1.641,0.673H82.5h0.001c2.152-0.001,4.105-0.864,5.523-2.258
				c1.418-1.394,2.3-3.32,2.308-5.442v-0.082v-1.491v-0.143C90.33,9.22,89.453,7.293,88.04,5.895
				c-1.413-1.397-3.364-2.267-5.514-2.274H82.41H67.714h-2.481c-0.313,0-0.599,0.06-0.854,0.166
				C64.1,3.902,63.856,4.07,63.653,4.272c-0.229,0.227-0.408,0.494-0.531,0.771c-0.127,0.286-0.193,0.583-0.193,0.861v20.474h4.64
				V8.72V8.348V8.205h0.145H82.5h0.001c0.87,0.006,1.659,0.361,2.23,0.93c0.57,0.568,0.924,1.348,0.924,2.207h-0.103v0.001h0.103
				v1.696v0.143h-0.003c-0.037,0.802-0.382,1.528-0.921,2.064c-0.571,0.568-1.36,0.923-2.229,0.93h-0.001V16.175z"/>
		</g>
		<g>
			<path fill="#FFFFFF" d="M23.465,16.178H8.589c-0.639,0-1.219,0.257-1.639,0.672s-0.681,0.987-0.681,1.617
				c0,0.63,0.261,1.203,0.681,1.618c0.42,0.415,1,0.672,1.639,0.672h14.875h0.145V20.9v5.48h4.643V11.412v-0.063v-0.008l0,0
				c-0.002-2.127-0.882-4.057-2.3-5.455s-3.375-2.264-5.53-2.264h-3.866v0.001h-0.145c-4.34,0-8.274,1.38-11.1,3.843
				c-2.684,2.34-4.37,5.659-4.458,9.705l-0.003,0.14h0v0.047v0.12v0.001c0,0.001,0,0.001,0,0.001v0.001v0.001v0.001v0.001v0.001
				c0,0.001,0,0.001,0,0.001v0.001c0,0,0,0,0,0.001v0.001v0.001v0.001c0,0.001,0,0.001,0,0.001l0,0v0.009v8.878h4.64v-8.735v-0.142
				v-0.001v-0.142h0.001c0.037-2.797,1.171-5.012,2.997-6.564C10.482,9.101,13.3,8.2,16.412,8.2l4.011,0.004h0.001
				c0.871,0.007,1.67,0.363,2.249,0.933c0.576,0.567,0.936,1.346,0.936,2.203v4.694v0.143h-0.144 M0.85,17.492L0.85,17.492
				L0.85,17.492 M0.85,17.489L0.85,17.489L0.85,17.489c0,0.002,0,0.002,0,0.002C0.85,17.49,0.85,17.49,0.85,17.489L0.85,17.489
				L0.85,17.489 M0.85,17.48C0.85,17.481,0.85,17.481,0.85,17.48v0.002v0.001v0.001v0.001v0.001c0,0.001,0,0.001,0,0.001v0.001
				c0,0,0,0,0,0.001v0.001v-0.001c0-0.001,0-0.001,0-0.001v-0.001c0,0,0,0,0-0.001v-0.001v-0.001v-0.001v-0.001V17.48
				C0.85,17.481,0.85,17.481,0.85,17.48L0.85,17.48L0.85,17.48 M0.85,17.48C0.85,17.481,0.85,17.481,0.85,17.48v0.002v0.001v0.001
				v0.001v0.001c0,0.001,0,0.001,0,0.001v0.001c0,0,0,0,0,0.001v0.001v0.001v0.001c0,0.001,0,0.001,0,0.001l0,0l0,0
				c0-0.001,0-0.001,0-0.001V17.49v-0.001v-0.001c0-0.001,0-0.001,0-0.001v-0.001c0,0,0,0,0-0.001v-0.001v-0.001v-0.001v-0.001
				V17.48C0.85,17.481,0.85,17.481,0.85,17.48L0.85,17.48L0.85,17.48"/>
			<path fill="#FFFFFF" d="M117.563,21.797H95.937l-1.998-0.003v1.599v0.581c0,0.626,0.261,1.263,0.731,1.725
				c0.416,0.409,1.002,0.68,1.719,0.68h21.227c0.59,0,1.195-0.276,1.647-0.711c0.427-0.411,0.713-0.961,0.713-1.55v-0.322
				c0-0.583-0.285-0.892-0.729-1.31C118.803,22.067,118.2,21.797,117.563,21.797L117.563,21.797z"/>
			<path fill="#FFFFFF" d="M150.267,11.099l-0.066-2.069l-0.898-1.868l-1.409-1.352l-1.405-1.347l-1.913-0.834l-2.104-0.008h-0.097
				h-11.598h-0.145l-2.107,0.004l-1.916,0.832L125.2,5.806l-1.411,1.352l-0.9,1.87l-0.067,2.072l-0.004,0.139l0,0v0.11v7.24v0.063
				v0.009l0,0l0.002,2.115l0.871,1.921l1.405,1.396l1.406,1.397l1.942,0.872l2.141,0.016l0.144,0.001l0,0h11.579l0,0l0.145-0.001
				l2.153-0.003l1.954-0.867l1.416-1.397l1.416-1.398l0.879-1.929l0.002-2.124v-0.143h0.001v-7.169v-0.11h-0.001L150.267,11.099
				 M142.443,8.204l0.869,0.007l0.788,0.355l0.571,0.568l0.57,0.568l0.354,0.781v0.859v7.32v0.859l-0.354,0.78l-0.57,0.568
				l-0.539,0.537l-0.734,0.346l-0.812,0.042v0.005h-0.145h-11.795h-0.145v-0.005c-0.812-0.042-1.546-0.388-2.085-0.925l-0.539-0.536
				l-0.345-0.726l-0.037-0.803h-0.003V18.66l0,0v-0.143V11.34v-0.859l0.354-0.781l0.57-0.568l0.571-0.568l0.788-0.355l0.869-0.007
				h0.001h11.795h0.003"/>
			<polygon fill="#FFFFFF" points="182.16,3.622 177.516,3.622 177.516,19.871 177.515,19.886 177.457,20.422 177.256,20.858 
				176.937,21.181 176.612,21.509 176.17,21.717 175.632,21.794 175.611,21.796 175.022,21.796 174.582,21.66 174.245,21.426 
				173.911,21.194 173.683,20.868 173.513,20.486 167.004,8.138 166.999,8.127 166.408,6.721 165.535,5.56 164.384,4.771 
				163.313,4.036 161.997,3.621 160.439,3.626 158.802,3.626 157.196,4.3 155.984,5.458 154.84,6.552 154.048,8.078 153.911,9.873 
				153.911,10.393 153.911,26.379 158.554,26.379 158.554,10.311 158.553,9.693 158.78,9.193 159.122,8.834 159.515,8.421 
				160.058,8.197 160.575,8.197 161.091,8.197 161.516,8.353 161.844,8.587 162.239,8.867 162.495,9.262 162.607,9.633 
				169.081,21.897 169.086,21.909 169.63,23.217 170.488,24.411 171.711,25.234 172.763,25.943 174.089,26.378 175.724,26.378 
				177.375,26.378 178.96,25.618 180.144,24.487 181.365,23.32 182.16,21.759 182.16,20.235 			"/>
			<path fill="#FFFFFF" d="M51.457,16.175L51.457,16.175H39.625c-0.639,0-1.22,0.257-1.641,0.672
				c-0.421,0.415-0.681,0.988-0.681,1.619c0,0.631,0.261,1.204,0.681,1.619c0.421,0.415,1.001,0.673,1.641,0.673h11.832h0.001
				c2.152-0.001,4.105-0.864,5.523-2.258c1.418-1.394,2.3-3.32,2.308-5.442v-0.082v-1.491v-0.143
				c-0.002-2.122-0.879-4.049-2.292-5.447c-1.413-1.397-3.364-2.267-5.514-2.274h-0.116H36.67h-2.481
				c-0.313,0-0.599,0.06-0.854,0.166c-0.279,0.115-0.523,0.283-0.726,0.485c-0.229,0.227-0.408,0.494-0.531,0.771
				c-0.127,0.286-0.193,0.583-0.193,0.861v20.474h4.64V8.72V8.348V8.205h0.145h14.786h0.001c0.87,0.006,1.659,0.361,2.23,0.93
				c0.571,0.568,0.924,1.348,0.924,2.207h-0.103v0.001h0.103v1.696v0.143h-0.003c-0.037,0.802-0.382,1.528-0.921,2.064
				C53.116,15.813,52.327,16.168,51.457,16.175L51.457,16.175L51.457,16.175z"/>
			<path fill="#FBB218" d="M93.95,10.832L93.95,10.832c0-3.738,3.344-7.21,7.444-7.21h16.186c0.588,0,1.146,0.251,1.566,0.62
				c0.443,0.388,0.727,0.899,0.727,1.379v0.531c0,0.504-0.288,1.014-0.709,1.405c-0.43,0.4-0.991,0.667-1.515,0.667l-16.456-0.018
				c-1.278,0.09-2.301,1.297-2.387,2.466c0-0.002,0,0.981,0,2.069v0.342h0.376h18.367c0.584,0,1.131,0.254,1.549,0.61
				c0.474,0.402,0.775,1.078,0.775,1.5v0.408c0,0.5-0.273,1.03-0.695,1.431c-0.397,0.378-0.92,0.634-1.461,0.634H95.939H93.95
				v-1.815V15.83v-0.775V10.832L93.95,10.832z"/>
			<path fill="#FFFFFF" d="M82.501,16.175L82.501,16.175H70.668c-0.639,0-1.22,0.257-1.641,0.672s-0.682,0.988-0.682,1.619
				c0,0.631,0.261,1.204,0.682,1.619c0.421,0.415,1.001,0.673,1.641,0.673H82.5h0.001c2.152-0.001,4.105-0.864,5.523-2.258
				c1.418-1.394,2.3-3.32,2.308-5.442v-0.082v-1.491v-0.143C90.33,9.22,89.453,7.293,88.04,5.895
				c-1.413-1.397-3.364-2.267-5.514-2.274H82.41H67.714h-2.481c-0.313,0-0.599,0.06-0.854,0.166
				C64.1,3.902,63.856,4.07,63.653,4.272c-0.229,0.227-0.408,0.494-0.531,0.771c-0.127,0.286-0.193,0.583-0.193,0.861v20.474h4.64
				V8.72V8.348V8.205h0.145H82.5h0.001c0.87,0.006,1.659,0.361,2.23,0.93c0.57,0.568,0.924,1.348,0.924,2.207h-0.103v0.001h0.103
				v1.696v0.143h-0.003c-0.037,0.802-0.382,1.528-0.921,2.064c-0.571,0.568-1.36,0.923-2.229,0.93h-0.001V16.175z"/>
		</g>
	</g>
	<path fill="#FFFFFF" d="M188.371,5.897c0,0.628-0.221,1.164-0.666,1.608c-0.444,0.445-0.981,0.667-1.61,0.667
		c-0.628,0-1.166-0.222-1.612-0.667c-0.445-0.444-0.667-0.98-0.667-1.608c0-0.629,0.223-1.165,0.667-1.609
		c0.446-0.444,0.983-0.666,1.612-0.666s1.166,0.222,1.61,0.666C188.149,4.733,188.371,5.268,188.371,5.897 M188.118,5.897
		c0-0.558-0.198-1.035-0.593-1.43s-0.872-0.593-1.434-0.593c-0.559,0-1.036,0.198-1.43,0.593c-0.395,0.395-0.593,0.872-0.593,1.43
		c0,0.557,0.198,1.034,0.593,1.429c0.394,0.396,0.871,0.593,1.43,0.593c0.561,0,1.039-0.197,1.434-0.593
		C187.92,6.932,188.118,6.454,188.118,5.897 M185.248,4.592h0.953c0.344,0,0.591,0.063,0.742,0.189
		c0.149,0.126,0.225,0.283,0.225,0.472c0,0.198-0.079,0.365-0.235,0.5c-0.114,0.096-0.279,0.16-0.497,0.193
		c0.098,0.047,0.167,0.088,0.208,0.125c0.04,0.036,0.104,0.112,0.189,0.231c0.085,0.117,0.151,0.215,0.196,0.294l0.25,0.447h-0.391
		l-0.238-0.405c-0.182-0.314-0.321-0.502-0.415-0.563c-0.095-0.062-0.251-0.093-0.468-0.093h-0.201v1.061h-0.318V4.592
		 M185.566,4.852v0.852h0.311c0.342,0,0.569-0.018,0.68-0.051c0.081-0.023,0.148-0.071,0.2-0.144
		c0.053-0.072,0.079-0.149,0.079-0.228c0-0.117-0.045-0.219-0.134-0.303c-0.088-0.084-0.312-0.126-0.672-0.126H185.566"/>
</g>
</svg>
