<?xml version="1.0" encoding="utf-8"?>
<!-- Generator: Adobe Illustrator 17.0.0, SVG Export Plug-In . SVG Version: 6.00 Build 0)  -->
<!DOCTYPE svg PUBLIC "-//W3C//DTD SVG 1.1//EN" "http://www.w3.org/Graphics/SVG/1.1/DTD/svg11.dtd">
<svg version="1.1" id="图层_1" xmlns="http://www.w3.org/2000/svg" xmlns:xlink="http://www.w3.org/1999/xlink" x="0px" y="0px"
	 width="216.103px" height="60px" viewBox="0 0 216.103 60" enable-background="new 0 0 216.103 60" xml:space="preserve">
<g>
	<path fill-rule="evenodd" clip-rule="evenodd" fill="#46A8D6" d="M28.73,57.035L6.1,43.969V17.838L28.73,4.772l22.63,13.066v26.131
		L28.73,57.035L28.73,57.035z M10.299,25.607l23.179,13.382l-4.991,2.881L10.299,31.37v10.192L28.73,52.202l18.431-10.641v-5.08
		L23.497,22.818l4.99-2.881l18.674,10.782V20.246L28.73,9.605L10.299,20.246V25.607L10.299,25.607z"/>
	<g>
		<path fill="#46A8D6" d="M74.349,19.017c-1.313-0.703-2.492-1.055-3.539-1.055s-1.941,0.375-2.684,1.125
			c-0.742,0.75-1.113,1.656-1.113,2.718c0,0.75,0.221,1.55,0.663,2.402c0.441,0.852,1.438,2.213,2.988,4.085
			c1.55,1.872,2.735,3.496,3.556,4.873c0.82,1.376,1.23,2.955,1.23,4.737c0,2.221-0.668,4.022-2.004,5.406
			c-1.336,1.385-3.082,2.076-5.238,2.076c-1.188,0-2.641-0.352-4.359-1.055v-3.586c0.047,0.016,0.094,0.039,0.141,0.07
			c0.234,0.172,0.727,0.434,1.477,0.785s1.484,0.527,2.203,0.527c1.172,0,2.137-0.391,2.895-1.172s1.137-1.781,1.137-3
			c0-0.844-0.193-1.625-0.579-2.344s-1.086-1.697-2.1-2.934l-2.691-3.311c-1.045-1.283-1.817-2.457-2.317-3.521s-0.75-2.33-0.75-3.8
			c0-2.173,0.633-3.94,1.898-5.301s2.906-2.041,4.922-2.041c1.406,0,2.828,0.352,4.266,1.055V19.017z"/>
		<path fill="#46A8D6" d="M82.336,24.478v1.969h0.094c0.984-1.5,2.313-2.25,3.984-2.25c2.969,0,4.453,1.617,4.453,4.852v15.984
			h-3.797V30.149c0-2.016-0.797-3.023-2.391-3.023c-0.734,0-1.316,0.27-1.746,0.809s-0.645,1.277-0.645,2.215v14.883h-3.844V24.478
			H82.336z"/>
		<path fill="#46A8D6" d="M107.292,45.032h-3.844v-2.484h-0.117c-0.981,1.844-2.252,2.766-3.811,2.766
			c-1.324,0-2.493-0.621-3.506-1.863s-1.52-4.027-1.52-8.355c0-3.844,0.382-6.613,1.146-8.309s2.073-2.543,3.927-2.543
			c0.873,0,1.578,0.203,2.115,0.609c0.538,0.406,1.088,1.055,1.648,1.945h0.117v-2.25h3.844V45.032z M101.011,41.962
			c0.976,0,1.625-0.586,1.95-1.758s0.487-3.164,0.487-5.977c0-2.469-0.147-4.207-0.441-5.215s-0.913-1.512-1.856-1.512
			c-0.944,0-1.598,0.469-1.962,1.406c-0.363,0.938-0.545,2.633-0.545,5.086c0,2.891,0.143,4.941,0.43,6.152
			C99.36,41.356,100.005,41.962,101.011,41.962z"/>
		<path fill="#46A8D6" d="M115.234,26.798c0.625-0.891,1.23-1.539,1.816-1.945s1.277-0.609,2.074-0.609
			c1.828,0,3.125,0.813,3.891,2.44s1.148,4.278,1.148,7.954c0,4.146-0.402,6.973-1.207,8.481c-0.805,1.51-2.066,2.265-3.785,2.265
			c-0.75,0-1.383-0.168-1.898-0.504s-1.164-1.027-1.945-2.074h-0.094v11.297h-3.844V24.548h3.75v2.25H115.234z M117.531,42.079
			c0.922,0,1.578-0.536,1.969-1.608c0.391-1.071,0.586-2.813,0.586-5.223c0-2.802-0.18-4.793-0.539-5.975s-1.031-1.772-2.016-1.772
			c-0.906,0-1.523,0.489-1.852,1.468c-0.328,0.978-0.492,2.641-0.492,4.987c0,2.912,0.129,4.993,0.387,6.245
			S116.484,42.079,117.531,42.079z"/>
		<path fill="#46A8D6" d="M127.674,30.021c0-6.479,0.637-10.671,1.911-12.576c1.273-1.905,3.371-2.857,6.293-2.857
			c3.344,0,5.566,1.065,6.668,3.197c1.102,2.131,1.652,5.968,1.652,11.51c0,4.966-0.246,8.408-0.738,10.328
			c-0.492,1.921-1.344,3.334-2.555,4.239s-2.855,1.358-4.934,1.358c-2.141,0-3.781-0.418-4.922-1.253s-1.988-2.189-2.543-4.063
			C127.952,38.03,127.674,34.735,127.674,30.021z M139.979,30.255c0-5.667-0.333-9.167-0.999-10.502s-1.665-2.002-2.997-2.002
			c-1.567,0-2.641,0.8-3.22,2.4c-0.58,1.6-0.87,4.296-0.87,8.09v1.639c0,4.23,0.234,7.317,0.705,9.261
			c0.47,1.943,1.599,2.915,3.385,2.915c1.097,0,2.037-0.546,2.82-1.639c0.784-1.093,1.176-4.113,1.176-9.063V30.255z"/>
		<path fill="#46A8D6" d="M148.365,14.118h3.844v13.148h0.094c0.719-2.047,2.047-3.07,3.984-3.07c1.438,0,2.621,0.672,3.551,2.016
			s1.395,3.938,1.395,7.781c0,4.688-0.414,7.738-1.242,9.152s-2.109,2.121-3.844,2.121c-1.656,0-2.953-1.023-3.891-3.07h-0.094
			v2.836h-3.797V14.118z M157.154,35.517c0-2.906-0.168-4.977-0.504-6.211s-1.02-1.852-2.051-1.852c-0.875,0-1.5,0.5-1.875,1.5
			s-0.563,2.602-0.563,4.805c0,2.984,0.176,5.105,0.527,6.363s1.02,1.887,2.004,1.887c0.891,0,1.523-0.512,1.898-1.535
			S157.154,37.798,157.154,35.517z"/>
		<path fill="#46A8D6" d="M164.415,18.29c0-0.578,0.211-1.074,0.633-1.488s0.93-0.621,1.523-0.621c0.578,0,1.074,0.211,1.488,0.633
			s0.621,0.914,0.621,1.477c0,0.578-0.207,1.074-0.621,1.488s-0.91,0.621-1.488,0.621c-0.594,0-1.102-0.207-1.523-0.621
			S164.415,18.868,164.415,18.29z M164.696,24.548h3.797v29.555h-3.797V24.548z"/>
		<path fill="#46A8D6" d="M184.988,35.47h-8.625c0,2.219,0.152,3.895,0.457,5.027s1.027,1.699,2.168,1.699
			c0.875,0,1.469-0.328,1.781-0.984s0.477-1.688,0.492-3.094h3.492c-0.109,4.797-2.141,7.195-6.094,7.195
			c-4.25,0-6.375-3.359-6.375-10.078c0-7.328,2.203-10.992,6.609-10.992c1.672,0,3.105,0.633,4.301,1.898s1.793,3.883,1.793,7.852
			V35.47z M181.121,32.493c0-2.031-0.164-3.488-0.492-4.371s-0.922-1.324-1.781-1.324c-1.016,0-1.684,0.465-2.004,1.395
			s-0.48,2.363-0.48,4.301H181.121z"/>
		<path fill="#46A8D6" d="M197.828,44.399c-1.266,0.609-2.422,0.914-3.469,0.914c-2.094,0-3.625-0.859-4.594-2.578
			s-1.453-4.422-1.453-8.109c0-3.922,0.617-6.641,1.852-8.156s2.672-2.273,4.313-2.273c0.813,0,1.914,0.242,3.305,0.727v3.258
			c-0.906-0.406-1.625-0.609-2.156-0.609c-1.109,0-1.914,0.598-2.414,1.793s-0.75,3.074-0.75,5.637c0,4.641,1.008,6.961,3.023,6.961
			c0.578,0,1.359-0.242,2.344-0.727V44.399z"/>
		<path fill="#46A8D6" d="M207.878,27.571h-2.461v17.461h-3.844V27.571h-2.461v-3.023h2.461V18.97h3.844v5.578h2.461V27.571z"/>
	</g>
</g>
</svg>
